<svg xmlns="http://www.w3.org/2000/svg" viewBox="0 0 1440 620" role="img" aria-labelledby="titulo descricao">
  <title id="titulo">Banner QuebraNunca Futevôlei</title>
  <desc id="descricao">Arte escura com destaque laranja para campeonatos, grupos e rankings de futevôlei.</desc>
  <defs>
    <linearGradient id="fundo" x1="0" x2="1" y1="0" y2="1">
      <stop offset="0" stop-color="#1b1d22"/>
      <stop offset="0.5" stop-color="#08090b"/>
      <stop offset="1" stop-color="#15110a"/>
    </linearGradient>
    <linearGradient id="quadra" x1="0" x2="1" y1="0" y2="0">
      <stop offset="0" stop-color="#ffb300" stop-opacity="0.95"/>
      <stop offset="1" stop-color="#ff7a00" stop-opacity="0.86"/>
    </linearGradient>
    <filter id="brilho" x="-20%" y="-20%" width="140%" height="140%">
      <feGaussianBlur stdDeviation="18"/>
    </filter>
  </defs>
  <rect width="1440" height="620" fill="url(#fundo)"/>
  <circle cx="1160" cy="96" r="210" fill="#ffb300" opacity="0.16" filter="url(#brilho)"/>
  <circle cx="188" cy="560" r="250" fill="#ffffff" opacity="0.05" filter="url(#brilho)"/>
  <path d="M0 500 C220 430 410 450 610 388 C860 310 1060 212 1440 246 L1440 620 L0 620 Z" fill="#ffb300" opacity="0.09"/>
  <g transform="translate(760 108)">
    <path d="M66 340 L390 234 L588 352 L260 474 Z" fill="#090a0d" stroke="#ffb300" stroke-width="8" opacity="0.96"/>
    <path d="M188 300 L383 410" stroke="#ffb300" stroke-width="5" opacity="0.72"/>
    <path d="M294 264 L492 376" stroke="#ffb300" stroke-width="5" opacity="0.72"/>
    <path d="M260 474 L260 104" stroke="#f8f8f8" stroke-width="7" opacity="0.72"/>
    <path d="M432 408 L432 40" stroke="#f8f8f8" stroke-width="7" opacity="0.72"/>
    <path d="M260 122 C316 92 375 70 432 50" stroke="#f8f8f8" stroke-width="5" opacity="0.52"/>
    <path d="M260 168 C318 140 376 118 432 98" stroke="#f8f8f8" stroke-width="3" opacity="0.42"/>
    <circle cx="520" cy="138" r="44" fill="url(#quadra)"/>
    <path d="M486 138 C508 116 532 116 554 138 M486 138 C508 160 532 160 554 138 M520 94 L520 182" fill="none" stroke="#08090b" stroke-width="5" opacity="0.78"/>
  </g>
  <g transform="translate(92 104)">
    <rect x="0" y="0" width="142" height="38" rx="19" fill="#ffb300" opacity="0.15" stroke="#ffb300" stroke-opacity="0.46"/>
    <text x="24" y="25" fill="#ffcc4d" font-family="Barlow, Arial, sans-serif" font-size="16" font-weight="700">JOGUE JUNTO</text>
    <text x="0" y="118" fill="#ffffff" font-family="Space Grotesk, Arial, sans-serif" font-size="74" font-weight="700">Campeonatos,</text>
    <text x="0" y="194" fill="#ffffff" font-family="Space Grotesk, Arial, sans-serif" font-size="74" font-weight="700">grupos e ranking</text>
    <text x="0" y="248" fill="#e8dfce" font-family="Barlow, Arial, sans-serif" font-size="27" font-weight="500">Organize partidas 2x2, acompanhe resultados e veja a evolução dos atletas.</text>
    <g transform="translate(0 326)">
      <rect width="164" height="72" rx="16" fill="#090a0d" stroke="#ffb300" stroke-opacity="0.46"/>
      <text x="22" y="31" fill="#ffffff" font-family="Space Grotesk, Arial, sans-serif" font-size="24" font-weight="700">2x2</text>
      <text x="22" y="53" fill="#ffcc4d" font-family="Barlow, Arial, sans-serif" font-size="14" font-weight="700">PARTIDAS</text>
      <rect x="184" width="210" height="72" rx="16" fill="#090a0d" stroke="#ffb300" stroke-opacity="0.46"/>
      <text x="206" y="31" fill="#ffffff" font-family="Space Grotesk, Arial, sans-serif" font-size="24" font-weight="700">Ranking</text>
      <text x="206" y="53" fill="#ffcc4d" font-family="Barlow, Arial, sans-serif" font-size="14" font-weight="700">EM TEMPO REAL</text>
    </g>
  </g>
</svg>
